<svg width="40" height="40" viewBox="0 0 40 40" fill="none" xmlns="http://www.w3.org/2000/svg">
<g clip-path="url(#clip0_83_29827)">
<g clip-path="url(#clip1_83_29827)">
<path d="M4.84365 37.7603C7.45525 40.3886 10.837 40.4221 13.4151 37.844C15.4742 35.7849 17.4665 31.1309 18.9899 28.8039L23.0412 32.8719C24.28 34.1274 25.7868 34.1274 26.9586 32.9221L28.3983 31.4824C29.6205 30.2436 29.6038 28.8373 28.3482 27.5817L15.039 14.2558C13.7666 13.0002 12.3437 12.9835 11.1216 14.2056L9.68182 15.6453C8.47647 16.8507 8.47647 18.3071 9.73204 19.5627L13.7834 23.6141C11.4731 25.1376 6.83584 27.1297 4.75995 29.1889C2.19856 31.767 2.2153 35.1654 4.84365 37.7603ZM9.31352 35.584C8.15838 35.584 7.23762 34.6464 7.23762 33.508C7.23762 32.3697 8.15838 31.4489 9.31352 31.4489C10.4519 31.4489 11.3727 32.3697 11.3727 33.508C11.3727 34.6464 10.4519 35.584 9.31352 35.584ZM30.3403 26.8116L36.8359 20.3161C38.694 18.4579 38.6439 16.248 36.7522 14.3227L35.8983 13.4522C34.1573 15.7123 29.1852 18.3574 28.2309 17.4031C28.0803 17.2524 28.0635 16.9511 28.2812 16.7167C30.3068 14.6911 31.6293 12.7156 31.9308 9.50136L23.3258 0.879702C21.7353 -0.7107 18.9732 -0.191727 18.2198 2.82167C17.165 7.10739 16.2108 9.6018 15.1729 11.661L30.3403 26.8116Z" fill="#9EFF00"/>
</g>
</g>
<defs>
<clipPath id="clip0_83_29827">
<rect width="40" height="40" fill="white"/>
</clipPath>
<clipPath id="clip1_83_29827">
<rect width="35.3453" height="40.0127" fill="white" transform="translate(2.85547)"/>
</clipPath>
</defs>
</svg>
